# xmcd
#
# Track frame offsets: 
#        150
#        9875
#        18115
#        30247
#        43020
#        53630
#        64707
#        74725
#        83627
#        92802
#        101530
#        111840
#        126312
#        134230
#        143142
#        152192
#        160667
#        174265
#        188877
#        200142
#        211212
#        226137
#        236060
#        251620
#        267035
#
# Disc length: 3777 seconds
#
# Revision: 0
# Processed by: cddbd v1.5.2PL0 Copyright (c) Steve Scherf et al.
# Submitted via: ExactAudioCopy v0.95b3
#
DISCID=540ebf19
DTITLE=Dave Clark Five  - The Complete History Vol. 7 - Pieces and Bits 
DTITLE=Rarities, Hits and Single Tracks
DYEAR=1900
DGENRE=
TTITLE0=Chaquita (first version)
TTITLE1=In Your Heart
TTITLE2=First Love
TTITLE3=I Walk The Line
TTITLE4=That's What I Said
TTITLE5=I Knew It All The Time
TTITLE6=The Mulberry Bush
TTITLE7=Poison Ivy
TTITLE8=Over And Over
TTITLE9=At The Scene
TTITLE10=I Miss You
TTITLE11=All Night Long
TTITLE12=Don't Let Me Down
TTITLE13=Man In A Pin-Striped Suit
TTITLE14=Good Time Woman
TTITLE15=Forget
TTITLE16=Children
TTITLE17=The Mulberry Tree
TTITLE18=Into Your Life
TTITLE19=Always Me
TTITLE20=Rub It In
TTITLE21=I'm Sorry Baby
TTITLE22=Sweet City Woman
TTITLE23=Love Comes But Once
TTITLE24=Sha-Na-Na-Na
EXTD=
EXTT0=
EXTT1=
EXTT2=
EXTT3=
EXTT4=
EXTT5=
EXTT6=
EXTT7=
EXTT8=
EXTT9=
EXTT10=
EXTT11=
EXTT12=
EXTT13=
EXTT14=
EXTT15=
EXTT16=
EXTT17=
EXTT18=
EXTT19=
EXTT20=
EXTT21=
EXTT22=
EXTT23=
EXTT24=
PLAYORDER=
